<svg width="528" height="352" viewBox="0 0 528 352" fill="none" xmlns="http://www.w3.org/2000/svg">
<path d="M311.5 0C356.626 0 395.316 26.248 411.673 63.5928C414.421 63.3792 417.198 63.2705 420 63.2705C478.329 63.2705 525.858 110.392 527.929 169.316H528V335C528 344.389 520.389 352 511 352H17C7.61131 352 0.000239189 344.389 0 335V169.316H0.00292969C0.252546 124.981 37.7628 89.1133 84 89.1133C86.7851 89.1133 89.5384 89.2448 92.2539 89.499C105.352 55.5701 141.48 31.1895 184 31.1895C199.054 31.1895 213.307 34.2455 226.021 39.6992C245.881 15.532 276.786 0 311.5 0Z" fill="#F1FCF3"/>
</svg>
