<svg width="125" height="100" viewBox="0 0 125 100" fill="none" xmlns="http://www.w3.org/2000/svg">
<mask id="path-1-inside-1_8_382" fill="white">
<path d="M48.6553 0C60.3367 6.62759e-05 70.6568 5.94145 76.8779 15.0234C79.6361 14.3874 82.5021 14.0498 85.4434 14.0498C107.29 14.05 125 32.5505 125 55.3721V83C125 92.3888 117.389 100 108 100H17C7.61116 100 0 92.3888 0 83V55.3721C0 46.0344 5.64338 37.7619 14.3262 32.6523C15.5689 14.4072 30.4628 0 48.6553 0Z"/>
</mask>
<path d="M48.6553 0C60.3367 6.62759e-05 70.6568 5.94145 76.8779 15.0234C79.6361 14.3874 82.5021 14.0498 85.4434 14.0498C107.29 14.05 125 32.5505 125 55.3721V83C125 92.3888 117.389 100 108 100H17C7.61116 100 0 92.3888 0 83V55.3721C0 46.0344 5.64338 37.7619 14.3262 32.6523C15.5689 14.4072 30.4628 0 48.6553 0Z" fill="#BEF4CB"/>
<path d="M48.6553 0L48.6553 -1H48.6553V0ZM76.8779 15.0234L76.0529 15.5886L76.4382 16.1511L77.1026 15.9979L76.8779 15.0234ZM85.4434 14.0498L85.4434 13.0498H85.4434V14.0498ZM108 100V101V100ZM14.3262 32.6523L14.8333 33.5142L15.288 33.2466L15.3239 32.7203L14.3262 32.6523ZM48.6553 0L48.6553 1C59.9873 1.00006 70.0069 6.76229 76.0529 15.5886L76.8779 15.0234L77.7029 14.4583C71.3066 5.12061 60.686 -0.999932 48.6553 -1L48.6553 0ZM76.8779 15.0234L77.1026 15.9979C79.7883 15.3785 82.5789 15.0498 85.4434 15.0498V14.0498V13.0498C82.4253 13.0498 79.4839 13.3962 76.6532 14.049L76.8779 15.0234ZM85.4434 14.0498L85.4434 15.0498C106.697 15.05 124 33.0612 124 55.3721H125H126C126 32.0398 107.883 13.05 85.4434 13.0498L85.4434 14.0498ZM125 55.3721H124V83H125H126V55.3721H125ZM125 83H124C124 91.8366 116.837 99 108 99V100V101C117.941 101 126 92.9411 126 83H125ZM108 100V99H17V100V101H108V100ZM17 100V99C8.16344 99 1 91.8366 1 83H0H-1C-1 92.9411 7.05887 101 17 101V100ZM0 83H1V55.3721H0H-1V83H0ZM0 55.3721H1C1 46.4663 6.38261 38.4872 14.8333 33.5142L14.3262 32.6523L13.819 31.7905C4.90414 37.0367 -1 45.6026 -1 55.3721H0ZM14.3262 32.6523L15.3239 32.7203C16.5323 14.9788 31.0097 1 48.6553 1V0V-1C29.916 -1 14.6056 13.8357 13.3285 32.5844L14.3262 32.6523Z" fill="#184F28" mask="url(#path-1-inside-1_8_382)"/>
<path d="M14.5571 75H8.13094L17.9225 46.6364H25.6505L35.4282 75H29.002L21.8973 53.1179H21.6757L14.5571 75ZM14.1554 63.8512H29.3344V68.5323H14.1554V63.8512ZM52.9002 75L44.7844 46.6364H51.3352L56.0302 66.3441H56.2656L61.4453 46.6364H67.0543L72.2202 66.3857H72.4694L77.1644 46.6364H83.7152L75.5994 75H69.755L64.3537 56.4556H64.1321L58.7447 75H52.9002ZM95.9772 75H89.5511L99.3426 46.6364H107.071L116.848 75H110.422L103.317 53.1179H103.096L95.9772 75ZM95.5756 63.8512H110.755V68.5323H95.5756V63.8512Z" fill="#072C12"/>
</svg>
